<svg width="180" height="105" viewBox="0 0 180 105" fill="none" xmlns="http://www.w3.org/2000/svg">
<g clip-path="url(#clip0_288_4)">
<path d="M9.13595 29.8483C10.7719 38.7915 12.8081 47.9075 19.5263 54.5292C25.5343 60.4413 33.8188 63.4798 42.096 64.2878C51.1094 65.164 60.2625 62.9874 68.394 59.1463C72.5774 57.1708 76.5418 54.7889 80.3063 52.1052C82.1691 50.7662 83.9936 49.3571 85.7633 47.9001C87.533 46.4432 89.3317 44.9661 90.5 42.971C91.4905 41.2608 91.7861 39.1098 90.9717 37.2797C90.1134 35.3404 88.0836 34.4203 86.0684 34.1995C81.5152 33.7024 76.6023 35.9275 72.8974 38.4192C65.7216 43.229 59.6176 52.4735 62.3478 61.3969C65.078 70.3203 74.8146 74.5303 83.5585 75.2823C92.3023 76.0344 102.368 74.4263 111.155 71.9563C127.834 67.2741 143.303 58.2849 155.317 45.7776C156.811 44.2333 158.227 42.6245 159.588 40.968C161.158 39.0699 155.922 38.7041 154.815 40.0008C145.002 51.5463 132.655 60.663 118.564 66.3395C111.609 69.1368 104.303 71.1243 96.8678 72.0627C88.8467 73.0863 79.8062 73.4971 73.0679 68.2651C70.0385 65.9125 67.7719 62.5563 67.2413 58.7123C66.7107 54.8684 67.8551 50.6652 69.9165 47.2212C71.9779 43.7772 74.887 41.0546 78.2574 39.0858C79.7019 38.242 81.264 37.5206 82.8806 37.0622C83.6281 36.8539 84.3142 36.6345 84.9735 37.1323C85.7571 37.7156 86.0408 38.7543 86.0896 39.6876C86.2752 43.5459 81.8675 46.2793 79.1854 48.3711C75.9585 50.8848 72.5656 53.1916 68.9977 55.2011C62.4547 58.8828 55.071 61.591 47.4825 61.7547C39.5245 61.9283 31.3853 59.2831 25.3739 54.029C18.1755 47.7522 16.0949 38.3875 14.412 29.4233C14.0598 27.5618 8.83335 28.135 9.14385 29.8751L9.13156 29.8729L9.13595 29.8483Z" fill="white" fill-opacity="0.81"/>
<path d="M141.323 44.9468L154.995 38.2833L161.579 35.0777C163.412 34.1894 165.431 32.8276 167.522 32.7706L164.819 31.9962C165.699 34.028 164.901 36.5072 164.399 38.5328C163.825 40.824 163.152 43.0976 162.492 45.3734C161.169 49.9374 159.677 54.7371 159.681 59.5382C159.687 61.3505 164.723 60.9206 164.949 59.0865C165.579 53.9301 166.82 49.0474 168.266 44.075C168.97 41.6295 169.685 39.1862 170.209 36.6833C170.637 34.6445 170.855 32.7837 170.013 30.822C169.653 29.9977 167.998 30.0313 167.311 30.0477C164.724 30.1173 162.413 31.123 160.12 32.2457C157.591 33.4783 155.062 34.7109 152.521 35.9414L137.335 43.3473C136.293 43.8577 136.595 44.8617 137.5 45.264C138.711 45.7971 140.198 45.493 141.338 44.9367L141.323 44.9468Z" fill="white" fill-opacity="0.81"/>
</g>
<defs>
<clipPath id="clip0_288_4">
<rect width="168.9" height="75.93" fill="white" transform="translate(13.3585) rotate(10.1329)"/>
</clipPath>
</defs>
</svg>
